<svg id="icons" xmlns="http://www.w3.org/2000/svg" xmlns:xlink="http://www.w3.org/1999/xlink" width="26.294" height="25.095" viewBox="0 0 26.294 25.095">
  <defs>
    <linearGradient id="linear-gradient" x1="0.5" y1="0.254" x2="0.5" y2="0.808" gradientUnits="objectBoundingBox">
      <stop offset="0" stop-color="#ffe100"/>
      <stop offset="1" stop-color="#edaa00"/>
    </linearGradient>
  </defs>
  <g id="Layer_3" data-name="Layer 3" transform="translate(0 0)">
    <path id="Path_1747" data-name="Path 1747" d="M21.92,9.008,24.8,14.85a1.5,1.5,0,0,0,1.133.793l6.444.935a1.514,1.514,0,0,1,.864,2.608l-4.669,4.55a1.506,1.506,0,0,0-.436,1.332l1.1,6.42a1.506,1.506,0,0,1-2.188,1.585l-5.763-3.036a1.514,1.514,0,0,0-1.4,0L14.1,33.081A1.506,1.506,0,0,1,11.909,31.5l1.1-6.42a1.506,1.506,0,0,0-.436-1.332L7.882,19.186a1.514,1.514,0,0,1,.84-2.576l6.444-.935a1.522,1.522,0,0,0,1.141-.793L19.185,9.04a1.514,1.514,0,0,1,2.735-.032Z" transform="translate(-7.43 -8.16)" fill="url(#linear-gradient)"/>
  </g>
</svg>
